<svg width="190" height="203" fill="none" xmlns="http://www.w3.org/2000/svg"><path fill="#fff" d="M3 6h186v197H3z"/><ellipse cx="131" cy="190.5" rx="45" ry="10.5" fill="#DDD"/><path d="M41.5 94.5c10 7 19 13.5 22 17.5 2.4 3.2 4 5.667 4.5 6.5m-4.5-30c1.833 2.333 6.4 7.8 10 11 3.6 3.2 8.167 12.667 10 17M79 68c.5 1.667 1.8 6.4 3 12 1.5 7 7.5 23.5 8 27 .4 2.8 1.167 6.167 1.5 7.5m10.5-42c-1 7.5-1.5 7-2.5 16s-4.5 26-3 28m27-40.5c-1.5 4.5-5.1 14.5-7.5 18.5-3 5-11 22-9.5 24m29.5-27c-7.5 5-11 8-15.5 13.5-3.6 4.4-6.5 8.167-7.5 9.5m39-7.5c-13.5 2-16.5 1-22.5 3-4.8 1.6-11 5-13.5 6.5" stroke="#3B702D" stroke-width="2"/><path d="M94 112.5c-17.6.8-32.667 4.333-38 6.5 0 7.5 0 30 4.5 41.5 3.6 9.2 4.167 25 4.5 30.5 4.667 2.5 17.8 5.2 29 6 14 1 25.5-3 30.5-8.5 0-13.5 3.5-25.5 5-32.5 6.4-15.6 4-31.5 2-39.5-10 0-19.9-4.8-37.5-4z" fill="#E46516"/><path fill-rule="evenodd" clip-rule="evenodd" d="M127.603 164.242c-6.574 8.732-15.371 17.043-26.103 20.758-12.472 4.317-26.047 2.378-36.93-1.16.148 2.09.25 3.954.333 5.444.035.647.067 1.223.097 1.716 4.667 2.5 17.8 5.2 29 6 14 1 25.5-3 30.5-8.5 0-9.134 1.602-17.581 3.103-24.258z" fill="#D3520D"/><ellipse cx="79" cy="141" rx="3" ry="5" fill="#212121"/><ellipse cx="110" cy="141" rx="3" ry="5" transform="rotate(1.737 110 141)" fill="#212121"/><path d="M103 147c0 2.711-2.009 9-7.26 9-5.25 0-6.74-6.289-6.74-9 .864 2.182 1.49 6.545 6.74 6.545 5.251 0 6.396-4.909 7.26-6.545zM72.924 126.06c-1.603 1.899-.904 5.563-.279 5.655.28-.592.271-2.694 1.875-4.592 1.604-1.899 3.5-1.5 3.5-2-.5-.5-3.492-.961-5.096.937zM116.686 124.82c-1.946-1.547-5.587-.738-5.661-.11.6.261 2.701.19 4.646 1.737 1.946 1.546 1.604 3.453 2.104 3.438.485-.514.856-3.519-1.089-5.065z" fill="#212121"/><path d="M76.502 29.841c10.207 19.683 9.751 35.227 8.487 59.247-18-31.283-30.132-32.511-45.167-50.586-10.75-12.922-3.776-25.548 3.681-29.415 9.321-4.833 23.725 2.87 32.999 20.754z" fill="#6CB62E"/><mask id="a" maskUnits="userSpaceOnUse" x="28" y="0" width="75" height="98"><path d="M76.502 29.841c10.207 19.683 9.751 35.227 8.487 59.247-18-31.283-30.132-32.511-45.167-50.586-10.75-12.922-3.776-25.548 3.681-29.415 9.321-4.833 23.725 2.87 32.999 20.754z" fill="#6CB62E"/></mask><g mask="url(#a)"><path d="M62 2.5C43.5 15.667 6 41.6 4 40 1.5 38 66.5 16 70.5 6.5S43 56 32.5 53s43.5-26.5 45-33.5-7.5 38.5-23 40S87 52 89 46 69.5 73 62 70s20 2.5 27-4-27 8.5-27 15.5" stroke="#3B702D"/></g><path d="M31.476 78.285c13.203 7.443 18.967 16.135 27.567 29.753-21.958-11.243-29.076-7.909-44.3-12.873-10.886-3.549-11.951-12.792-9.364-17.38 3.234-5.737 14.1-6.263 26.097.5z" fill="#73C52F"/><path d="M164.238 100.635c-12.484-.42-20.268 3.227-32.159 9.125 20.276 1.5 23.857 6.899 36.702 9.931 9.183 2.169 13.896-3.881 14.042-8.22.183-5.424-7.241-10.453-18.585-10.836z" fill="#469239"/><path d="M63.277 76.412c8.128 9.373 11.57 18.964 16.093 30.218-12.209-7.687-20.228-10.24-28.356-19.613-8.128-9.374-6.55-12.533-2.569-15.985 3.98-3.452 6.704-3.994 14.832 5.38z" fill="#6CB62E"/><path d="M156.044 87.099c-10.279 8.343-17.967 9.165-30.118 13.61 8.632-12.743 8.611-19.1 18.89-27.444 10.279-8.343 16.806-10.176 20.337-5.825 3.532 4.35 1.17 11.315-9.109 19.659z" fill="#449F34"/><path d="M85.784 33.552c2.294 4.693 2.195 3.567 3.392 8.448.698-1.345 2.035-5.67 1.796-8.448-.3-3.473-.599-3.849-1.297-5.444-.699-1.596-1.796-1.971-2.395-2.065-.598-.094-1.995-.094-2.594.657-.598.75-1.596 2.159 1.098 6.852zM39.272 115.411c4.13-3.597 3.017-3.191 7.634-5.727-1.552-.342-6.293-.523-9.041.474-3.436 1.245-3.735 1.65-5.161 2.79-1.426 1.14-1.509 2.353-1.441 2.985.067.631.446 2.046 1.369 2.448.922.402 2.619 1.031 6.64-2.97zM181.394 93c-5.45.535-4.39.004-9.404 1.622.816-1.363 3.938-4.936 6.549-6.251 3.263-1.645 3.763-1.584 5.571-1.84 1.808-.255 2.747.518 3.16 1 .414.482 1.182 1.729.842 2.676-.341.947-1.048 2.612-6.718 2.792z" fill="#6CB62E"/><path d="M147.788 57.82c-8.148 16.69-17.445 22.28-30.279 35.117 3.451-21.315-.333-29.392 7.816-46.083 8.148-16.692 15.371-22.88 22.436-19.432 7.064 3.45 8.175 13.707.027 30.398z" fill="#6BAF32"/><mask id="b" maskUnits="userSpaceOnUse" x="105" y="22" width="55" height="77"><path d="M147.788 57.82c-8.148 16.69-17.445 22.28-30.279 35.117 3.451-21.315-.333-29.392 7.816-46.083 8.148-16.692 15.371-22.88 22.436-19.432 7.064 3.45 8.175 13.707.027 30.398z" fill="#6CB62E"/></mask><g mask="url(#b)"><path d="M102.785 76.757c14.668-.457 43.93-.95 43.634.727-.369 2.095-36.811-10.15-44.121-6.254-7.311 3.896 40.422-17.76 42.232-12.041 1.809 5.719-31.715-1.473-36.595 1.95-4.88 3.423 26.577-19.113 32.937-14.055 6.359 5.058-16.044-8.12-20.477-5.459-4.433 2.662 23.624-7.97 24.383-3.396.759 4.574-5.446-9.059-11.941-8.02-6.494 1.04 14.741 5.451 19.096 1.456" stroke="#3B702D"/></g><path d="M115.121 57.992c-2.658 16.074-9.085 23.103-16.665 37.112-2.47-18.785-7.698-24.626-5.04-40.7 2.657-16.075 7.836-18.639 14.663-17.51 6.826 1.128 9.699 5.023 7.042 21.098z" fill="#6CB62E"/><mask id="c" maskUnits="userSpaceOnUse" x="87" y="35" width="32" height="62"><path d="M115.121 57.992c-2.658 16.074-9.085 23.103-16.665 37.112-2.47-18.785-7.698-24.626-5.04-40.7 2.657-16.075 7.836-18.639 14.663-17.51 6.826 1.128 9.699 5.023 7.042 21.098z" fill="#6CB62E"/></mask><g mask="url(#c)"><path d="M127.511 59.032c-13.339-5.649-39.842-17.324-39.145-18.834.87-1.888 30.576 25.18 38.166 24.42 7.589-.758-40.994.511-41.157-5.812-.164-6.323 28.209 14.61 33.486 13.302 5.277-1.308-28.86 7.58-33.295.01-4.435-7.569 12.378 14.576 17.056 13.825 4.679-.752-23.34-2.049-22.85-6.82.49-4.772 2.585 11.087 8.706 12.772 6.12 1.686-11.888-11.433-16.84-9.35" stroke="#3B702D"/></g></svg>