<svg width="566" height="103" fill="none" xmlns="http://www.w3.org/2000/svg"><g clip-path="url(#clip0)"><path fill="#fff" d="M0 0h566v103H0z"/><path d="M38.555 10.756c4.002-12.64 21.888-12.64 25.89 0a13.579 13.579 0 0015.868 9.161c12.947-2.853 21.89 12.636 12.945 22.422a13.579 13.579 0 000 18.322c8.945 9.786.002 25.275-12.945 22.422a13.579 13.579 0 00-15.868 9.161c-4.002 12.639-21.888 12.639-25.89 0a13.579 13.579 0 00-15.868-9.161C9.74 85.936.797 70.447 9.742 60.66a13.579 13.579 0 000-18.322C.797 32.553 9.74 17.064 22.687 19.917a13.579 13.579 0 0015.868-9.16z" fill="#FF9800"/><path d="M60.661 9.742C70.447.797 85.936 9.74 83.083 22.687a13.579 13.579 0 009.16 15.868c12.64 4.002 12.64 21.888 0 25.89a13.579 13.579 0 00-9.16 15.868c2.853 12.947-12.636 21.89-22.422 12.945a13.579 13.579 0 00-18.322 0c-9.786 8.945-25.275.002-22.422-12.945a13.579 13.579 0 00-9.161-15.868c-12.64-4.002-12.64-21.888 0-25.89a13.579 13.579 0 009.161-15.868C17.064 9.74 32.553.797 42.34 9.742a13.579 13.579 0 0018.322 0z" fill="#FEC106"/><circle cx="51.756" cy="51.244" r="30.705" fill="#fff"/><circle cx="39.474" cy="40.498" r="6.141" fill="#FD5722"/><circle cx="63.526" cy="40.498" r="6.141" fill="#FD5722"/><path d="M51.5 71.202c7.65 0 14.196-4.795 16.874-11.584 1.419-3.596-1.841-6.839-5.707-6.839H40.333c-3.866 0-7.126 3.243-5.707 6.84 2.678 6.788 9.224 11.583 16.874 11.583zM139.84 76c-.528 0-.96-.168-1.296-.504-.336-.336-.504-.768-.504-1.296V27.4c0-.528.168-.96.504-1.296a1.917 1.917 0 011.296-.504h9.288c.528 0 .96.168 1.296.504.384.336.576.768.576 1.296v17.352h17.712V27.4c0-.528.168-.96.504-1.296.336-.336.768-.504 1.296-.504h9.288c.528 0 .96.168 1.296.504.336.336.504.768.504 1.296v46.8c0 .528-.168.96-.504 1.296-.336.336-.768.504-1.296.504h-9.288c-.528 0-.96-.168-1.296-.504-.336-.336-.504-.768-.504-1.296V56.272H151V74.2c0 .528-.192.96-.576 1.296-.336.336-.768.504-1.296.504h-9.288zm62.288.72c-2.544 0-4.872-.48-6.984-1.44-2.064-1.008-3.696-2.352-4.896-4.032a10.042 10.042 0 01-1.728-5.688c0-3.312 1.344-5.976 4.032-7.992 2.736-2.016 6.48-3.408 11.232-4.176l9-1.368v-1.008c0-1.824-.384-3.168-1.152-4.032-.768-.864-2.064-1.296-3.888-1.296-1.104 0-2.016.192-2.736.576-.72.384-1.464.912-2.232 1.584-.672.576-1.176.96-1.512 1.152-.144.384-.408.576-.792.576h-7.848c-.48 0-.888-.144-1.224-.432a1.455 1.455 0 01-.36-1.152c.048-1.296.672-2.736 1.872-4.32 1.248-1.584 3.12-2.952 5.616-4.104 2.544-1.152 5.664-1.728 9.36-1.728 5.904 0 10.272 1.32 13.104 3.96 2.832 2.592 4.248 6.096 4.248 10.512V74.2c0 .48-.168.912-.504 1.296-.336.336-.768.504-1.296.504h-8.352c-.48 0-.912-.168-1.296-.504a1.917 1.917 0 01-.504-1.296v-2.52c-1.056 1.488-2.544 2.712-4.464 3.672-1.872.912-4.104 1.368-6.696 1.368zm3.384-8.208c2.208 0 3.984-.72 5.328-2.16 1.392-1.44 2.088-3.552 2.088-6.336v-1.008l-6.12 1.08c-4.32.768-6.48 2.28-6.48 4.536 0 1.2.504 2.16 1.512 2.88 1.008.672 2.232 1.008 3.672 1.008zm29.653 21.168c-.48 0-.912-.168-1.296-.504-.336-.336-.504-.768-.504-1.296V40.36c0-.528.168-.96.504-1.296a1.917 1.917 0 011.296-.504h8.136c.528 0 .96.168 1.296.504.336.336.504.768.504 1.296v2.592c2.592-3.408 6.312-5.112 11.16-5.112 4.704 0 8.376 1.464 11.016 4.392 2.64 2.928 4.08 7.056 4.32 12.384.048.624.072 1.512.072 2.664 0 1.152-.024 2.04-.072 2.664-.192 5.184-1.632 9.288-4.32 12.312-2.688 2.976-6.36 4.464-11.016 4.464-4.704 0-8.208-1.608-10.512-4.824V87.88c0 .528-.168.96-.504 1.296-.336.336-.768.504-1.296.504h-8.784zm17.208-22.608c2.256 0 3.864-.672 4.824-2.016 1.008-1.344 1.584-3.192 1.728-5.544.096-.96.144-1.704.144-2.232 0-.528-.048-1.272-.144-2.232-.144-2.352-.72-4.2-1.728-5.544-.96-1.344-2.568-2.016-4.824-2.016-2.208 0-3.84.696-4.896 2.088-1.008 1.344-1.584 3.096-1.728 5.256l-.072 2.664.072 2.736c.096 1.968.696 3.6 1.8 4.896 1.104 1.296 2.712 1.944 4.824 1.944zm28.214 22.608c-.48 0-.912-.168-1.296-.504-.336-.336-.504-.768-.504-1.296V40.36c0-.528.168-.96.504-1.296a1.917 1.917 0 011.296-.504h8.136c.528 0 .96.168 1.296.504.336.336.504.768.504 1.296v2.592c2.592-3.408 6.312-5.112 11.16-5.112 4.704 0 8.376 1.464 11.016 4.392 2.64 2.928 4.08 7.056 4.32 12.384.048.624.072 1.512.072 2.664 0 1.152-.024 2.04-.072 2.664-.192 5.184-1.632 9.288-4.32 12.312-2.688 2.976-6.36 4.464-11.016 4.464-4.704 0-8.208-1.608-10.512-4.824V87.88c0 .528-.168.96-.504 1.296-.336.336-.768.504-1.296.504h-8.784zm17.208-22.608c2.256 0 3.864-.672 4.824-2.016 1.008-1.344 1.584-3.192 1.728-5.544.096-.96.144-1.704.144-2.232 0-.528-.048-1.272-.144-2.232-.144-2.352-.72-4.2-1.728-5.544-.96-1.344-2.568-2.016-4.824-2.016-2.208 0-3.84.696-4.896 2.088-1.008 1.344-1.584 3.096-1.728 5.256l-.072 2.664.072 2.736c.096 1.968.696 3.6 1.8 4.896 1.104 1.296 2.712 1.944 4.824 1.944zm31.781 22.608c-.432 0-.792-.144-1.08-.432a1.465 1.465 0 01-.432-1.08c0-.336.072-.648.216-.936l5.616-13.536-13.824-32.688c-.144-.384-.216-.672-.216-.864.096-.432.288-.792.576-1.08a1.364 1.364 0 011.08-.504h8.208c1.008 0 1.704.504 2.088 1.512l8.208 20.952 8.424-20.952c.48-1.008 1.2-1.512 2.16-1.512h8.064c.432 0 .792.168 1.08.504.336.288.504.624.504 1.008 0 .192-.072.504-.216.936l-20.376 47.16c-.384 1.008-1.104 1.512-2.16 1.512h-7.92zM381.645 76c-.48 0-.912-.168-1.296-.504a1.917 1.917 0 01-.504-1.296V27.4c0-.528.168-.96.504-1.296a1.917 1.917 0 011.296-.504h20.16c6.144 0 10.968 1.416 14.472 4.248 3.552 2.832 5.328 6.96 5.328 12.384 0 5.376-1.752 9.432-5.256 12.168-3.504 2.688-8.352 4.032-14.544 4.032h-8.568V74.2c0 .528-.192.96-.576 1.296-.336.336-.768.504-1.296.504h-9.72zm19.8-27.504c2.112 0 3.768-.528 4.968-1.584 1.2-1.104 1.8-2.712 1.8-4.824 0-1.968-.576-3.528-1.728-4.68-1.104-1.2-2.784-1.8-5.04-1.8h-8.424v12.888h8.424zM429.509 76c-.48 0-.912-.168-1.296-.504a1.917 1.917 0 01-.504-1.296V26.68c0-.528.168-.96.504-1.296a1.917 1.917 0 011.296-.504h8.496c.528 0 .96.168 1.296.504.336.336.504.768.504 1.296V74.2c0 .528-.168.96-.504 1.296-.336.336-.768.504-1.296.504h-8.496zm30.034.72c-2.544 0-4.872-.48-6.984-1.44-2.064-1.008-3.696-2.352-4.896-4.032a10.042 10.042 0 01-1.728-5.688c0-3.312 1.344-5.976 4.032-7.992 2.736-2.016 6.48-3.408 11.232-4.176l9-1.368v-1.008c0-1.824-.384-3.168-1.152-4.032-.768-.864-2.064-1.296-3.888-1.296-1.104 0-2.016.192-2.736.576-.72.384-1.464.912-2.232 1.584-.672.576-1.176.96-1.512 1.152-.144.384-.408.576-.792.576h-7.848c-.48 0-.888-.144-1.225-.432a1.458 1.458 0 01-.359-1.152c.048-1.296.672-2.736 1.872-4.32 1.248-1.584 3.12-2.952 5.616-4.104 2.544-1.152 5.664-1.728 9.36-1.728 5.904 0 10.272 1.32 13.104 3.96 2.832 2.592 4.248 6.096 4.248 10.512V74.2c0 .48-.168.912-.504 1.296-.336.336-.768.504-1.296.504h-8.352c-.48 0-.912-.168-1.296-.504a1.917 1.917 0 01-.504-1.296v-2.52c-1.056 1.488-2.544 2.712-4.464 3.672-1.872.912-4.104 1.368-6.696 1.368zm3.384-8.208c2.208 0 3.984-.72 5.328-2.16 1.392-1.44 2.088-3.552 2.088-6.336v-1.008l-6.12 1.08c-4.32.768-6.48 2.28-6.48 4.536 0 1.2.504 2.16 1.512 2.88 1.008.672 2.232 1.008 3.672 1.008zM492.579 76c-.528 0-.96-.168-1.296-.504-.336-.336-.504-.768-.504-1.296V40.36c0-.528.168-.96.504-1.296.336-.336.768-.504 1.296-.504h8.28c.528 0 .96.168 1.296.504.384.336.576.768.576 1.296v2.736c1.296-1.584 2.952-2.856 4.968-3.816 2.064-.96 4.392-1.44 6.984-1.44 4.224 0 7.656 1.44 10.296 4.32 2.64 2.832 3.96 6.816 3.96 11.952V74.2c0 .48-.168.912-.504 1.296-.336.336-.768.504-1.296.504h-9.072c-.48 0-.912-.168-1.296-.504a1.917 1.917 0 01-.504-1.296V54.544c0-2.256-.552-3.984-1.656-5.184-1.104-1.248-2.688-1.872-4.752-1.872-2.016 0-3.6.624-4.752 1.872-1.152 1.2-1.728 2.928-1.728 5.184V74.2c0 .48-.168.912-.504 1.296-.336.336-.768.504-1.296.504h-9zm63.196 0c-9.936 0-14.904-4.728-14.904-14.184V47.992h-5.616c-.528 0-.984-.168-1.368-.504-.336-.336-.504-.768-.504-1.296V40.36c0-.528.168-.96.504-1.296.384-.336.84-.504 1.368-.504h5.616V26.68c0-.528.168-.96.504-1.296a1.917 1.917 0 011.296-.504h8.352c.528 0 .96.168 1.296.504.336.336.504.768.504 1.296v11.88h9c.528 0 .96.168 1.296.504.384.336.576.768.576 1.296v5.832c0 .528-.192.96-.576 1.296-.336.336-.768.504-1.296.504h-9v12.816c0 3.552 1.368 5.328 4.104 5.328h5.544c.528 0 .96.168 1.296.504.336.336.504.768.504 1.296V74.2c0 .48-.168.912-.504 1.296-.336.336-.768.504-1.296.504h-6.696z" fill="#FD5722"/></g><defs><clipPath id="clip0"><path fill="#fff" d="M0 0h566v103H0z"/></clipPath></defs></svg>