<svg width="103" height="103" fill="none" xmlns="http://www.w3.org/2000/svg"><g clip-path="url(#clip0)"><path fill="#fff" d="M0 0h103v103H0z"/><path d="M38.555 10.756c4.002-12.64 21.888-12.64 25.89 0a13.579 13.579 0 0015.868 9.161c12.947-2.853 21.89 12.636 12.945 22.422a13.579 13.579 0 000 18.322c8.945 9.786.002 25.275-12.945 22.422a13.579 13.579 0 00-15.868 9.161c-4.002 12.639-21.888 12.639-25.89 0a13.579 13.579 0 00-15.868-9.161C9.74 85.936.797 70.447 9.742 60.66a13.579 13.579 0 000-18.322C.797 32.553 9.74 17.064 22.687 19.917a13.579 13.579 0 0015.868-9.16z" fill="#FF9800"/><path d="M60.661 9.742C70.447.797 85.936 9.74 83.083 22.687a13.579 13.579 0 009.16 15.868c12.64 4.002 12.64 21.888 0 25.89a13.579 13.579 0 00-9.16 15.868c2.853 12.947-12.636 21.89-22.422 12.945a13.579 13.579 0 00-18.322 0c-9.786 8.945-25.275.002-22.422-12.945a13.579 13.579 0 00-9.161-15.868c-12.64-4.002-12.64-21.888 0-25.89a13.579 13.579 0 009.161-15.868C17.064 9.74 32.553.797 42.34 9.742a13.579 13.579 0 0018.322 0z" fill="#FEC106"/><circle cx="51.756" cy="51.244" r="30.705" fill="#fff"/><circle cx="39.474" cy="40.498" r="6.141" fill="#FD5722"/><circle cx="63.526" cy="40.498" r="6.141" fill="#FD5722"/><path d="M51.5 71.202c7.65 0 14.196-4.795 16.874-11.584 1.419-3.596-1.841-6.839-5.707-6.839H40.333c-3.866 0-7.126 3.243-5.707 6.84 2.678 6.788 9.224 11.583 16.874 11.583z" fill="#FD5722"/></g><defs><clipPath id="clip0"><path fill="#fff" d="M0 0h103v103H0z"/></clipPath></defs></svg>