<svg width="186" height="197" fill="none" xmlns="http://www.w3.org/2000/svg"><path fill="#fff" d="M0 0h186v197H0z"/><ellipse cx="128" cy="184.5" rx="45" ry="10.5" fill="#DDD"/><path d="M45 120c7.5-8.5 9-14.5 15.5-14.5 5.2 0 12.167 4.667 15 7m-17.5 13c2.5-8 5.5-10.5 7-13s6-12 10.5-12c3.6 0 5.833 8 6.5 12M72 120c0-10.037-.5-21.5 3.5-24.5 3.2-2.4 11.167 3.833 15 6.5l12 10.5m16.5 4c-6-12.8-8-23-15-15l-7.5 11m29 4c-2.8-8.8-3.5-15-11.5-11l-6.5 4M130 120c-8.8-15.6-17.331-17.5-22-14.5l-11.5 11" stroke="#3B702D"/><path d="M91 106.5c-17.6.8-32.667 4.333-38 6.5 0 7.5 0 30 4.5 41.5 3.6 9.2 4.167 25 4.5 30.5 4.667 2.5 17.8 5.2 29 6 14 1 25.5-3 30.5-8.5 0-13.5 3.5-25.5 5-32.5 6.4-15.6 4-31.5 2-39.5-10 0-19.9-4.8-37.5-4z" fill="#E46516"/><path fill-rule="evenodd" clip-rule="evenodd" d="M124.603 158.242c-6.574 8.732-15.371 17.043-26.103 20.758-12.472 4.317-26.047 2.378-36.93-1.16.148 2.09.25 3.954.333 5.444.035.647.067 1.223.097 1.716 4.667 2.5 17.8 5.2 29 6 14 1 25.5-3 30.5-8.5 0-9.134 1.602-17.581 3.103-24.258z" fill="#D3520D"/><path d="M100 152c0-2.711-2.01-9-7.26-9S86 149.289 86 152c.864-2.182 1.49-6.545 6.74-6.545s6.396 4.909 7.26 6.545zM74.7 123.989c2.151-1.243 2.735-4.927 2.178-5.226-.463.463-1.168 2.443-3.32 3.686-2.153 1.242-3.802.225-3.971.695.301.64 2.96 2.088 5.112.845zM108.01 122.031c1.758 1.757 5.467 1.367 5.612.752-.567-.328-2.662-.496-4.419-2.254-1.758-1.757-1.202-3.613-1.7-3.655-.54.456-1.25 3.399.507 5.157zM105.223 139c2.62 0 5.094-5.062 4.744-6-.667.295-2.124 3.5-4.744 3.5-2.62 0-3.819-3.804-4.221-3.241-.063 1.231 1.601 5.741 4.221 5.741zM80.223 139c2.62 0 5.094-5.062 4.744-6-.667.295-2.124 3.5-4.744 3.5-2.62 0-3.819-3.804-4.221-3.241-.063 1.231 1.601 5.741 4.221 5.741z" fill="#212121"/><path d="M43.498 121.407c1.02-3.325 1.752-4.179 9.65-6.707l-1.573 2.635c-2.047 2.163-2.611 9.401-1.54 13.282 1.339 4.851 2.492 3.106.606 5.705-1.885 2.599-.465 4.015-.93 8.031-.466 4.015 2.901 5.032 5.08 8.102 2.179 3.07-1.325 11.429-1.719 14.826-.394 3.398 1.955 7.74-1.181 10.194-3.136 2.453-6.227 1.782-9.353 1.42-3.127-.363-5.449-2.197-5.02-5.904.43-3.706-2.598-2.179-2.204-5.577.394-3.398.322-2.78-1.222-8.594-1.544-5.813.609-5.251 3.513-11.175 2.905-5.924 1.475-4.524 1.182-10.193-.294-5.669.394-3.398 3.816-8.323 3.423-4.925-.124-4.397.895-7.722z" fill="#73C52F"/><mask id="a" maskUnits="userSpaceOnUse" x="31" y="113" width="30" height="68"><path d="M43.498 121.407c1.02-3.325 1.752-4.179 9.65-6.707l-1.573 2.635c-2.047 2.163-2.611 9.401-1.54 13.282 1.339 4.851 2.492 3.106.606 5.705-1.885 2.599-.465 4.015-.93 8.031-.466 4.015 2.901 5.032 5.08 8.102 2.179 3.07-1.325 11.429-1.719 14.826-.394 3.398 1.955 7.74-1.181 10.194-3.136 2.453-6.227 1.782-9.353 1.42-3.127-.363-5.449-2.197-5.02-5.904.43-3.706-2.598-2.179-2.204-5.577.394-3.398.322-2.78-1.222-8.594-1.544-5.813.609-5.251 3.513-11.175 2.905-5.924 1.475-4.524 1.182-10.193-.294-5.669.394-3.398 3.816-8.323 3.423-4.925-.124-4.397.895-7.722z" fill="#73C52F"/></mask><g mask="url(#a)"><path d="M35.5 120.5h18l-14 4 12 4.5-20 6.5 22 3.5-18 4.5 18 4-24.5 7 28.5 11-31.5 2 27.5 12" stroke="#3B702D"/></g><path d="M123.498 120.896c-.938-3.519-1.612-4.423-8.88-7.098l1.447 2.789c1.883 2.288 2.403 9.947 1.417 14.054-1.232 5.132-2.293 3.286-.558 6.036 1.736 2.75.429 4.249.857 8.498s-2.671 5.324-4.676 8.572c-2.005 3.249 1.219 12.093 1.582 15.689.362 3.595-1.799 8.189 1.087 10.785 2.886 2.597 5.731 1.886 8.608 1.503 2.877-.384 5.014-2.325 4.619-6.247-.396-3.922 2.392-2.306 2.029-5.901-.362-3.595-.296-2.942 1.125-9.093 1.42-6.152-.561-5.556-3.234-11.825-2.673-6.268-1.357-4.787-1.087-10.785s-.363-3.595-3.512-8.806c-3.15-5.212.114-4.653-.824-8.171z" fill="#548D23"/><mask id="b" maskUnits="userSpaceOnUse" x="112" y="113" width="21" height="70"><path d="M123.498 120.896c-.938-3.519-1.612-4.423-8.88-7.098l1.447 2.789c1.883 2.288 2.403 9.947 1.417 14.054-1.232 5.132-2.293 3.286-.558 6.036 1.736 2.75.429 4.249.857 8.498s-2.671 5.324-4.676 8.572c-2.005 3.249 1.219 12.093 1.582 15.689.362 3.595-1.799 8.189 1.087 10.785 2.886 2.597 5.731 1.886 8.608 1.503 2.877-.384 5.014-2.325 4.619-6.247-.396-3.922 2.392-2.306 2.029-5.901-.362-3.595-.296-2.942 1.125-9.093 1.42-6.152-.561-5.556-3.234-11.825-2.673-6.268-1.357-4.787-1.087-10.785s-.363-3.595-3.512-8.806c-3.15-5.212.114-4.653-.824-8.171z" fill="#5AF740"/></mask><g mask="url(#b)"><path d="M130.859 119.936h-16.566l12.884 4.232-11.043 4.762 18.406 6.877-20.247 3.704 16.566 4.761-16.566 4.233 22.548 7.406-26.229 11.64 28.989 2.116-25.308 12.697" stroke="#3B702D"/></g><path d="M62.501 128.869c.232-.75.271-1.581-.616-3.088-.182-.506-.666-1.857-1.14-3.211-.474-1.354-.51-2.684-.469-3.18-.578.297-1.956 1.13-2.835 2.086-1.1 1.196-3.654 4.767-2.516 6.418 1.139 1.651-.494 3.836-2.105 5.857-1.611 2.021-.129 5.722.475 6.803.604 1.081.388 3.281-.614 4.768-1.002 1.487-1.527 2.422-2.616 3.006-1.089.584-2.499 4.191-1.707 5.909.793 1.718 2.324 2.416 3.575 3.19 1.252.774 2.362.026 3.467-.166 1.106-.192 1.76-.553 2.66-1.775.901-1.221.48-3.726-.095-5.026-.576-1.3.083-2.218 1.14-3.085s1.329-2.448 1.441-3.324c.113-.877-.806-1.609-.672-2.65s.268-2.083 1.364-2.722c1.088-.634 1.08-2.07 1.074-3.073v-.02c-.006-1.003-1.28-3.173-1.189-3.886.092-.712 1.146-2.081 1.378-2.831z" fill="#469239"/><path d="M66.93 122.149c-.052-.783.102-1.6 1.314-2.861.294-.45 1.078-1.653 1.853-2.86.775-1.207 1.118-2.493 1.192-2.985.494.423 1.641 1.552 2.276 2.686.793 1.418 2.45 5.484.96 6.826-1.49 1.342-.408 3.847.692 6.186 1.099 2.339 1.17 2.958.333 3.87-.838.911-.138 3.819.492 5.498.63 1.678-1.03 4.272-.107 5.092.924.821.046 5.015-1.123 6.502-1.168 1.488-2.82 1.813-4.216 2.276-1.397.463-2.303-.522-3.334-.965-1.031-.443-1.584-.946-2.177-2.343-.593-1.396.396-3.736 1.257-4.867.861-1.132.433-2.177-.395-3.265-.828-1.088-.725-2.689-.632-3.568.093-.879 1.157-1.378 1.267-2.422.111-1.044.222-2.088-.696-2.963-.912-.87-.57-2.265-.333-3.239l.005-.019c.238-.975 1.98-2.791 2.056-3.505.076-.715-.633-2.29-.685-3.074zM123.748 116.459c-.094-.326-.103-.685.294-1.328.084-.218.305-.797.523-1.377a3.743 3.743 0 00.232-1.371c.247.134.834.507 1.206.928.464.527 1.535 2.094 1.027 2.797-.507.703.178 1.662.856 2.55.678.889.764 1.144.493 1.605-.271.461.29 1.627.709 2.278.419.652-.046 1.899.419 2.162.465.262.476 2.114.118 2.849-.359.735-1.027 1.023-1.575 1.346-.548.323-1.02-.011-1.496-.104s-.756-.256-1.134-.792c-.377-.536-.173-1.615.088-2.171.261-.556-.015-.959-.464-1.343-.449-.385-.551-1.07-.592-1.45-.041-.38.363-.688.315-1.139-.048-.451-.097-.902-.564-1.189-.465-.284-.448-.904-.436-1.338v-.008c.012-.434.583-1.36.55-1.669-.033-.308-.476-.909-.569-1.236z" fill="#449F34"/><path d="M134.474 152.71c-5.329-15.387-4.59-23.95-6.164-39.194 9.477 16.039 15.024 19.472 20.352 34.859 5.329 15.386 3.406 19.498-1.056 20.861-4.462 1.363-7.804-1.139-13.132-16.526z" fill="#6CB62E"/><mask id="c" maskUnits="userSpaceOnUse" x="128" y="113" width="24" height="57"><path d="M134.474 152.71c-5.329-15.387-4.59-23.95-6.164-39.194 9.477 16.039 15.024 19.472 20.352 34.859 5.329 15.386 3.406 19.498-1.056 20.861-4.462 1.364-7.804-1.139-13.132-16.526z" fill="#6CB62E"/></mask><g mask="url(#c)"><path d="M115.61 162.677c13.876-1.742 41.639-4.797 41.69-3.075.064 2.151-37.06-7.051-43.249-2.472-6.188 4.579 34.967-21.494 37.824-15.868 2.856 5.627-30.489 1.28-34.457 5.169-3.968 3.888 21.517-21.653 28.575-17.093 7.057 4.561-16.885-6.812-20.578-3.732-3.693 3.079 20.913-10.125 22.543-5.565 1.629 4.56-6.981-8.686-12.959-7.068-5.977 1.618 15.115 4.226 18.47-.196" stroke="#3B702D"/></g></svg>